<mxfile host="app.diagrams.net" agent="Mozilla/5.0 (X11; Linux x86_64) AppleWebKit/537.36 (KHTML, like Gecko) Chrome/135.0.0.0 Safari/537.36" version="26.2.14">
  <diagram name="Page-1" id="MbhGSACNb4gu_uGpFhin">
    <mxGraphModel dx="1722" dy="987" grid="1" gridSize="10" guides="1" tooltips="1" connect="1" arrows="1" fold="1" page="1" pageScale="1" pageWidth="827" pageHeight="1169" background="none" math="0" shadow="0">
      <root>
        <mxCell id="0" />
        <mxCell id="1" parent="0" />
        <mxCell id="dxXVFsZv-Mx1Nc2ohDS--4" style="edgeStyle=orthogonalEdgeStyle;rounded=0;orthogonalLoop=1;jettySize=auto;html=1;exitX=0.5;exitY=1;exitDx=0;exitDy=0;entryX=0.5;entryY=0;entryDx=0;entryDy=0;" edge="1" parent="1" source="acNoMvWJMsMCijYzbIam-1" target="acNoMvWJMsMCijYzbIam-19">
          <mxGeometry relative="1" as="geometry">
            <mxPoint x="340" y="220" as="targetPoint" />
          </mxGeometry>
        </mxCell>
        <mxCell id="acNoMvWJMsMCijYzbIam-1" value="Annotation&lt;div&gt;&lt;font style=&quot;font-size: 10px;&quot;&gt;(Prokka)&lt;/font&gt;&lt;/div&gt;" style="rounded=1;whiteSpace=wrap;html=1;fillColor=#fff2cc;strokeColor=#d6b656;" parent="1" vertex="1">
          <mxGeometry x="210" y="130" width="120" height="60" as="geometry" />
        </mxCell>
        <mxCell id="dxXVFsZv-Mx1Nc2ohDS--8" style="edgeStyle=orthogonalEdgeStyle;rounded=0;orthogonalLoop=1;jettySize=auto;html=1;exitX=0.5;exitY=1;exitDx=0;exitDy=0;entryX=0.5;entryY=0;entryDx=0;entryDy=0;" edge="1" parent="1" source="acNoMvWJMsMCijYzbIam-19" target="EttusDQc6cs6hr2crV58-21">
          <mxGeometry relative="1" as="geometry" />
        </mxCell>
        <mxCell id="acNoMvWJMsMCijYzbIam-19" value="Genotype &amp;amp; Phenotype Binary Tables" style="whiteSpace=wrap;html=1;rounded=1;fillColor=#fff2cc;strokeColor=#d6b656;" parent="1" vertex="1">
          <mxGeometry x="280" y="230" width="120" height="60" as="geometry" />
        </mxCell>
        <mxCell id="dxXVFsZv-Mx1Nc2ohDS--9" style="edgeStyle=orthogonalEdgeStyle;rounded=0;orthogonalLoop=1;jettySize=auto;html=1;exitX=0.5;exitY=1;exitDx=0;exitDy=0;entryX=0.5;entryY=0;entryDx=0;entryDy=0;" edge="1" parent="1" source="EttusDQc6cs6hr2crV58-11" target="EttusDQc6cs6hr2crV58-21">
          <mxGeometry relative="1" as="geometry" />
        </mxCell>
        <mxCell id="EttusDQc6cs6hr2crV58-11" value="Phylogenetic&lt;br&gt;tree" style="rounded=1;whiteSpace=wrap;html=1;fillColor=#fff2cc;strokeColor=#d6b656;" parent="1" vertex="1">
          <mxGeometry x="490" y="230" width="120" height="60" as="geometry" />
        </mxCell>
        <mxCell id="dxXVFsZv-Mx1Nc2ohDS--10" value="" style="edgeStyle=orthogonalEdgeStyle;rounded=0;orthogonalLoop=1;jettySize=auto;html=1;" edge="1" parent="1" source="EttusDQc6cs6hr2crV58-21" target="EttusDQc6cs6hr2crV58-70">
          <mxGeometry relative="1" as="geometry" />
        </mxCell>
        <mxCell id="EttusDQc6cs6hr2crV58-21" value="Machine Learning&lt;div&gt;&lt;font style=&quot;font-size: 10px;&quot;&gt;(with phylogenetic correction)&lt;/font&gt;&lt;/div&gt;" style="rounded=1;whiteSpace=wrap;html=1;fillColor=#fff2cc;strokeColor=#d6b656;" parent="1" vertex="1">
          <mxGeometry x="354" y="330" width="120" height="60" as="geometry" />
        </mxCell>
        <mxCell id="EttusDQc6cs6hr2crV58-70" value="Results" style="rounded=1;whiteSpace=wrap;html=1;fillColor=#fff2cc;strokeColor=#d6b656;" parent="1" vertex="1">
          <mxGeometry x="354" y="420" width="120" height="60" as="geometry" />
        </mxCell>
        <mxCell id="hFegTtOwy7nXW7bJ5HmI-9" style="edgeStyle=orthogonalEdgeStyle;rounded=0;orthogonalLoop=1;jettySize=auto;html=1;entryX=0.5;entryY=0;entryDx=0;entryDy=0;exitX=0.25;exitY=1;exitDx=0;exitDy=0;" parent="1" source="hFegTtOwy7nXW7bJ5HmI-8" target="acNoMvWJMsMCijYzbIam-1" edge="1">
          <mxGeometry relative="1" as="geometry" />
        </mxCell>
        <mxCell id="dxXVFsZv-Mx1Nc2ohDS--2" style="edgeStyle=orthogonalEdgeStyle;rounded=0;orthogonalLoop=1;jettySize=auto;html=1;exitX=0.5;exitY=1;exitDx=0;exitDy=0;entryX=0.5;entryY=0;entryDx=0;entryDy=0;" edge="1" parent="1" source="hFegTtOwy7nXW7bJ5HmI-8" target="dxXVFsZv-Mx1Nc2ohDS--1">
          <mxGeometry relative="1" as="geometry" />
        </mxCell>
        <mxCell id="hFegTtOwy7nXW7bJ5HmI-8" value="Genomic Fasta Files" style="rounded=1;whiteSpace=wrap;html=1;fillColor=#fff2cc;strokeColor=#d6b656;" parent="1" vertex="1">
          <mxGeometry x="350" y="30" width="120" height="60" as="geometry" />
        </mxCell>
        <mxCell id="0gsvJsnFjAPhSoMY4tv9-5" style="edgeStyle=orthogonalEdgeStyle;rounded=0;orthogonalLoop=1;jettySize=auto;html=1;exitX=0.75;exitY=1;exitDx=0;exitDy=0;entryX=0.5;entryY=0;entryDx=0;entryDy=0;" parent="1" source="hFegTtOwy7nXW7bJ5HmI-8" target="0gsvJsnFjAPhSoMY4tv9-8" edge="1">
          <mxGeometry relative="1" as="geometry">
            <mxPoint x="583" y="70" as="targetPoint" />
          </mxGeometry>
        </mxCell>
        <mxCell id="dxXVFsZv-Mx1Nc2ohDS--3" style="edgeStyle=orthogonalEdgeStyle;rounded=0;orthogonalLoop=1;jettySize=auto;html=1;exitX=0.5;exitY=1;exitDx=0;exitDy=0;" edge="1" parent="1" source="0gsvJsnFjAPhSoMY4tv9-8" target="EttusDQc6cs6hr2crV58-11">
          <mxGeometry relative="1" as="geometry" />
        </mxCell>
        <mxCell id="0gsvJsnFjAPhSoMY4tv9-8" value="Phlyogeny&lt;div&gt;&lt;font style=&quot;font-size: 10px;&quot;&gt;(MashTree or PanACoTA)&lt;/font&gt;&lt;/div&gt;" style="rounded=1;whiteSpace=wrap;html=1;fillColor=#fff2cc;strokeColor=#d6b656;" parent="1" vertex="1">
          <mxGeometry x="490" y="130" width="120" height="60" as="geometry" />
        </mxCell>
        <mxCell id="dxXVFsZv-Mx1Nc2ohDS--6" style="edgeStyle=orthogonalEdgeStyle;rounded=0;orthogonalLoop=1;jettySize=auto;html=1;exitX=0.5;exitY=1;exitDx=0;exitDy=0;entryX=0.5;entryY=0;entryDx=0;entryDy=0;" edge="1" parent="1" source="dxXVFsZv-Mx1Nc2ohDS--1" target="acNoMvWJMsMCijYzbIam-19">
          <mxGeometry relative="1" as="geometry">
            <mxPoint x="340" y="220" as="targetPoint" />
          </mxGeometry>
        </mxCell>
        <mxCell id="dxXVFsZv-Mx1Nc2ohDS--1" value="Variant Calling&lt;div&gt;&lt;font style=&quot;font-size: 10px;&quot;&gt;(Snippy)&lt;/font&gt;&lt;/div&gt;" style="rounded=1;whiteSpace=wrap;html=1;fillColor=#fff2cc;strokeColor=#d6b656;" vertex="1" parent="1">
          <mxGeometry x="350" y="130" width="120" height="60" as="geometry" />
        </mxCell>
      </root>
    </mxGraphModel>
  </diagram>
</mxfile>
